# xmcd
#
# Track frame offsets:
#	150
#	13711
#	28585
#	44639
#	55951
#	66437
#	81312
#	93872
#	109500
#	121145
#	137449
#	151271
#	167236
#	182193
#
# Disc length: 2680 seconds
#
# Revision: 1
# Processed by: cddbd v1.5PL3 Copyright (c) Steve Scherf et al.
# Submitted via: audiograbber 1.83.01
#
DISCID=b70a760e
DTITLE=Heidi Hauge - Country Jewels
DYEAR=2004
DGENRE=Country
TTITLE0=Sorry You Asked?
TTITLE1=Forth Worth
TTITLE2=Hvis Jeg Savner Dag
TTITLE3=Silver Threads, And Golden Needles
TTITLE4=Making Plans
TTITLE5=Country Jente
TTITLE6=Daddy
TTITLE7=Fair To Midland
TTITLE8=Vårt Beste År
TTITLE9=You Are My Sunshine
TTITLE10=Akkurat Nå
TTITLE11=Till A Tear Becomes A Rose
TTITLE12=Trains And Boats And Planes
TTITLE13=Whose Bed Has Your Boots Been Under
EXTD=
EXTT0=
EXTT1=
EXTT2=
EXTT3=
EXTT4=
EXTT5=
EXTT6=
EXTT7=
EXTT8=
EXTT9=
EXTT10=
EXTT11=
EXTT12=
EXTT13=
PLAYORDER=
